<?xml version="1.0" encoding="utf-8"?>
<!-- Generator: Adobe Illustrator 16.0.0, SVG Export Plug-In . SVG Version: 6.00 Build 0)  -->
<!DOCTYPE svg PUBLIC "-//W3C//DTD SVG 1.1//EN" "http://www.w3.org/Graphics/SVG/1.1/DTD/svg11.dtd">
<svg version="1.1" id="Layer_1" xmlns="http://www.w3.org/2000/svg" xmlns:xlink="http://www.w3.org/1999/xlink" x="0px" y="0px"
	 width="200px" height="200px" viewBox="0 0 1000 1000" enable-background="new 0 0 1000 1000" xml:space="preserve">
<g>
	<g>
		<g>
			<g>
				<path fill="#FFFFFF" d="M222.364,919.239v25.727H118.97V781.383h29.744v137.855H222.364z"/>
				<path fill="#FFFFFF" d="M294.123,818.444c9.443,0,17.386,1.176,23.841,3.541c6.455,2.357,11.606,5.662,15.464,9.912
					c3.855,4.248,6.607,9.404,8.261,15.461c1.655,6.062,2.479,12.713,2.479,19.945v74.832c-4.407,0.945-11.056,2.09-19.949,3.424
					c-8.892,1.334-18.924,2.002-30.096,2.002c-7.396,0-14.161-0.705-20.301-2.123c-6.135-1.418-11.371-3.697-15.694-6.844
					c-4.333-3.146-7.715-7.238-10.153-12.275c-2.441-5.031-3.656-11.252-3.656-18.646c0-7.086,1.377-13.062,4.129-17.941
					c2.754-4.875,6.492-8.85,11.215-11.92c4.721-3.07,10.184-5.271,16.403-6.611c6.214-1.334,12.705-2.006,19.476-2.006
					c3.146,0,6.45,0.199,9.916,0.592c3.457,0.391,7.154,1.057,11.094,2.004v-4.719c0-3.309-0.395-6.449-1.182-9.443
					c-0.788-2.988-2.164-5.625-4.129-7.908c-1.97-2.275-4.569-4.047-7.789-5.311c-3.23-1.258-7.284-1.887-12.159-1.887
					c-6.607,0-12.669,0.473-18.175,1.412c-5.513,0.945-9.999,2.049-13.455,3.305l-3.541-23.133
					c3.619-1.256,8.888-2.516,15.815-3.775C278.859,819.075,286.256,818.444,294.123,818.444z M296.486,924.901
					c8.809,0,15.495-0.473,20.064-1.418v-31.631c-1.576-0.473-3.86-0.939-6.85-1.412c-2.988-0.473-6.291-0.709-9.912-0.709
					c-3.15,0-6.338,0.236-9.559,0.709c-3.229,0.473-6.14,1.338-8.734,2.594c-2.596,1.262-4.685,3.035-6.256,5.311
					c-1.574,2.285-2.357,5.158-2.357,8.619c0,6.766,2.121,11.445,6.37,14.045C283.502,923.604,289.244,924.901,296.486,924.901z"/>
				<path fill="#FFFFFF" d="M381.696,883.354c0-9.123,1.419-17.658,4.251-25.609c2.83-7.943,6.881-14.828,12.157-20.654
					c5.269-5.82,11.683-10.389,19.235-13.689c7.554-3.307,16.052-4.957,25.496-4.957c11.645,0,22.66,2.123,33.048,6.371
					l-6.14,23.369c-3.305-1.418-7.044-2.594-11.21-3.541c-4.175-0.943-8.618-1.418-13.341-1.418c-11.172,0-19.669,3.51-25.49,10.506
					c-5.824,7.006-8.734,16.879-8.734,29.623c0,12.279,2.754,21.998,8.262,29.156c5.506,7.164,14.791,10.742,27.854,10.742
					c4.875,0,9.682-0.473,14.398-1.42c4.723-0.943,8.812-2.121,12.273-3.539l4.014,23.605c-3.146,1.574-7.905,2.992-14.281,4.248
					c-6.371,1.256-12.942,1.887-19.707,1.887c-10.547,0-19.713-1.613-27.502-4.838s-14.244-7.707-19.355-13.457
					c-5.115-5.74-8.934-12.586-11.451-20.537C382.958,901.26,381.696,892.645,381.696,883.354z"/>
				<path fill="#FFFFFF" d="M610.667,941.19c-5.509,1.418-12.668,2.871-21.477,4.369c-8.818,1.49-18.494,2.242-29.037,2.242
					c-9.916,0-18.216-1.418-24.901-4.254c-6.691-2.83-12.039-6.762-16.051-11.797c-4.014-5.037-6.886-11.057-8.619-18.062
					c-1.734-6.998-2.596-14.672-2.596-23.012v-69.164h28.562v64.68c0,13.215,1.923,22.658,5.783,28.324
					c3.856,5.668,10.579,8.498,20.18,8.498c3.463,0,7.123-0.156,10.978-0.471c3.855-0.316,6.729-0.711,8.615-1.182v-99.85h28.562
					V941.19z"/>
				<path fill="#FFFFFF" d="M656.463,825.524c5.51-1.57,12.67-3.066,21.482-4.484c8.813-1.42,18.568-2.123,29.272-2.123
					c10.068,0,18.487,1.377,25.258,4.129c6.761,2.758,12.154,6.607,16.168,11.566c4.013,4.959,6.845,10.941,8.498,17.941
					c1.653,7.004,2.479,14.676,2.479,23.018v69.395h-28.563v-64.916c0-6.605-0.436-12.232-1.297-16.875
					c-0.866-4.639-2.284-8.414-4.249-11.33c-1.969-2.908-4.643-5.037-8.025-6.377c-3.388-1.334-7.517-2-12.396-2
					c-3.618,0-7.395,0.232-11.33,0.703c-3.934,0.473-6.844,0.867-8.733,1.182v99.613h-28.563V825.524z"/>
				<path fill="#FFFFFF" d="M845.063,818.444c9.444,0,17.387,1.176,23.842,3.541c6.454,2.357,11.606,5.662,15.462,9.912
					c3.854,4.248,6.608,9.404,8.262,15.461c1.654,6.062,2.479,12.713,2.479,19.945v74.832c-4.405,0.945-11.056,2.09-19.947,3.424
					s-18.925,2.002-30.097,2.002c-7.395,0-14.161-0.705-20.3-2.123c-6.137-1.418-11.372-3.697-15.696-6.844
					c-4.332-3.146-7.715-7.238-10.151-12.275c-2.443-5.031-3.657-11.252-3.657-18.646c0-7.086,1.377-13.062,4.129-17.941
					c2.753-4.875,6.492-8.85,11.214-11.92c4.723-3.07,10.186-5.271,16.403-6.611c6.215-1.334,12.707-2.006,19.477-2.006
					c3.146,0,6.45,0.199,9.917,0.592c3.456,0.391,7.154,1.057,11.093,2.004v-4.719c0-3.309-0.394-6.449-1.182-9.443
					c-0.787-2.988-2.164-5.625-4.129-7.908c-1.969-2.275-4.569-4.047-7.79-5.311c-3.229-1.258-7.284-1.887-12.159-1.887
					c-6.607,0-12.669,0.473-18.173,1.412c-5.515,0.945-10.001,2.049-13.457,3.305l-3.54-23.133c3.62-1.256,8.889-2.516,15.815-3.775
					C829.8,819.075,837.194,818.444,845.063,818.444z M847.427,924.901c8.809,0,15.495-0.473,20.064-1.418v-31.631
					c-1.575-0.473-3.86-0.939-6.849-1.412c-2.989-0.473-6.294-0.709-9.912-0.709c-3.15,0-6.34,0.236-9.559,0.709
					c-3.231,0.473-6.14,1.338-8.735,2.594c-2.595,1.262-4.685,3.035-6.257,5.311c-1.575,2.285-2.357,5.158-2.357,8.619
					c0,6.766,2.122,11.445,6.371,14.045C834.442,923.604,840.184,924.901,847.427,924.901z"/>
			</g>
			<g>
				<path fill="#FFFFFF" d="M655.253,766.92c2.471,1.336,4.639,2.238,6.511,2.701c1.867,0.469,3.972,0.701,6.307,0.701
					c1.668,0,3.271-0.182,4.807-0.553c1.533-0.361,2.867-0.916,4.007-1.648c1.131-0.732,2.034-1.705,2.702-2.906
					c0.667-1.199,1.001-2.6,1.001-4.203c0-1.736-0.486-3.17-1.45-4.309c-0.968-1.131-2.174-2.113-3.604-2.951
					c-1.438-0.836-2.989-1.65-4.658-2.451c-1.668-0.803-3.22-1.738-4.657-2.805c-1.437-1.07-2.637-2.404-3.604-4.008
					c-0.97-1.598-1.451-3.67-1.451-6.205c0-2.869,0.532-5.324,1.603-7.363c1.066-2.033,2.503-3.701,4.305-5.004
					c1.803-1.303,3.869-2.252,6.21-2.854c2.336-0.6,4.735-0.9,7.206-0.9c2.136,0,4.258,0.186,6.361,0.553
					c2.1,0.365,4.119,0.916,6.057,1.648l-2.604,5.807c-1.398-0.598-3.003-1.084-4.805-1.451c-1.803-0.365-3.675-0.551-5.607-0.551
					c-1.603,0-3.155,0.166-4.656,0.5c-1.502,0.334-2.823,0.891-3.954,1.654c-1.14,0.77-2.052,1.738-2.757,2.906
					c-0.699,1.168-1.052,2.586-1.052,4.254c0,1.736,0.487,3.17,1.455,4.305c0.965,1.135,2.151,2.135,3.554,3.002
					c1.4,0.871,2.952,1.688,4.658,2.457c1.7,0.764,3.252,1.682,4.652,2.752c1.404,1.07,2.586,2.354,3.554,3.855
					c0.969,1.5,1.455,3.42,1.455,5.756c0,2.938-0.551,5.471-1.654,7.613c-1.098,2.135-2.554,3.869-4.356,5.203
					c-1.801,1.338-3.869,2.32-6.204,2.951c-2.34,0.635-4.739,0.955-7.21,0.955c-2.604,0-5.209-0.287-7.813-0.854
					c-2.599-0.564-4.972-1.449-7.107-2.65L655.253,766.92z"/>
				<path fill="#FFFFFF" d="M707.881,725.467c2.803-1.002,5.61-1.803,8.419-2.404c2.808-0.6,5.578-0.9,8.321-0.9
					c12.159,0,18.244,6.34,18.244,19.021c0,4.477-0.738,8.814-2.205,13.018c-1.47,4.207-3.625,7.928-6.46,11.168
					c-2.841,3.234-6.312,5.824-10.423,7.756c-4.11,1.938-8.799,2.906-14.077,2.906c-2.604,0-5.009-0.303-7.21-0.904l-4.438,18.525
					h-6.595L707.881,725.467z M704.028,769.122c2.072,0.604,4.18,0.898,6.321,0.898c4.147,0,7.827-0.814,11.037-2.449
					c3.213-1.637,5.917-3.768,8.128-6.41c2.206-2.637,3.878-5.607,5.02-8.91c1.135-3.305,1.704-6.658,1.704-10.061
					c0-5.008-1.107-8.666-3.313-10.969s-5.514-3.451-9.926-3.451c-1.538,0-3.095,0.135-4.665,0.398
					c-1.571,0.27-3.192,0.641-4.866,1.104L704.028,769.122z"/>
				<path fill="#FFFFFF" d="M782.669,775.729c-0.398-0.801-0.746-1.713-1.048-2.752c-0.3-1.033-0.514-2.084-0.647-3.156
					c-2.341,2.271-4.796,3.943-7.373,5.01s-5.235,1.604-7.975,1.604c-2.14,0-4.18-0.371-6.121-1.104
					c-1.937-0.736-3.642-1.871-5.115-3.406c-1.47-1.533-2.66-3.516-3.56-5.957c-0.903-2.434-1.353-5.32-1.353-8.66
					c0-5.34,0.866-10.178,2.604-14.52c1.736-4.338,4.156-8.025,7.261-11.061c3.109-3.039,6.784-5.393,11.024-7.062
					c4.239-1.668,8.868-2.502,13.877-2.502c4.139,0,8.113,0.699,11.923,2.104l-7.71,31.141c-0.398,1.668-0.732,3.232-1,4.703
					c-0.27,1.469-0.398,2.873-0.398,4.207c0,1.803,0.161,3.504,0.5,5.105c0.333,1.6,0.93,3.369,1.803,5.307L782.669,775.729z
					 M788.484,728.971c-1.205-0.266-2.308-0.469-3.308-0.598c-1.006-0.135-2.045-0.205-3.113-0.205
					c-4.145,0-7.823,0.803-11.033,2.404c-3.212,1.604-5.918,3.703-8.124,6.307c-2.211,2.605-3.896,5.576-5.064,8.912
					c-1.172,3.34-1.757,6.74-1.757,10.213c0,2.738,0.265,5.027,0.802,6.861c0.533,1.836,1.271,3.301,2.206,4.402
					c0.941,1.104,2.024,1.904,3.263,2.404c1.236,0.502,2.562,0.752,3.966,0.752c2.743,0,5.319-0.654,7.729-1.951
					c2.411-1.301,4.686-3.154,6.825-5.561c0-1.803,0.266-3.869,0.802-6.209c0.534-2.336,1.034-4.436,1.502-6.307L788.484,728.971z"
					/>
				<path fill="#FFFFFF" d="M835.485,772.625c-1.34,0.871-3.392,1.705-6.157,2.502c-2.772,0.803-5.858,1.205-9.265,1.205
					c-6.075,0-10.648-1.738-13.716-5.209c-3.072-3.471-4.605-8.242-4.605-14.318c0-4.537,0.699-8.893,2.1-13.066
					c1.402-4.172,3.457-7.859,6.158-11.062c2.706-3.205,6.023-5.758,9.962-7.658c3.938-1.904,8.41-2.855,13.419-2.855
					c3.471,0,6.909,0.566,10.311,1.701l-2.701,5.908c-1.539-0.602-3.054-1.02-4.556-1.252c-1.501-0.23-2.956-0.352-4.354-0.352
					c-3.54,0-6.762,0.75-9.663,2.252c-2.904,1.502-5.394,3.541-7.459,6.107c-2.072,2.572-3.676,5.543-4.806,8.916
					c-1.136,3.369-1.705,6.922-1.705,10.662c0,4.406,1.021,7.877,3.054,10.412c2.038,2.539,5.292,3.805,9.763,3.805
					c1.404,0,2.822-0.135,4.26-0.398c1.431-0.266,2.752-0.584,3.952-0.951c1.199-0.369,2.271-0.75,3.202-1.152
					c0.936-0.398,1.636-0.766,2.104-1.1L835.485,772.625z"/>
				<path fill="#FFFFFF" d="M890.451,735.481c0,3.738-0.917,6.773-2.752,9.109c-1.836,2.336-4.407,4.189-7.711,5.557
					c-3.304,1.371-7.274,2.354-11.912,2.957c-4.641,0.598-9.797,1.033-15.469,1.301v2.105c0,1.936,0.198,3.734,0.597,5.402
					c0.403,1.668,1.136,3.123,2.206,4.355c1.066,1.236,2.554,2.219,4.454,2.955c1.904,0.732,4.354,1.1,7.357,1.1
					c2.335,0,4.69-0.33,7.062-1.002c2.368-0.662,4.62-1.668,6.757-3.002l0.698,6.01c-2.266,1.266-4.771,2.252-7.506,2.951
					c-2.739,0.701-5.51,1.053-8.312,1.053c-3.671,0-6.757-0.469-9.26-1.404c-2.506-0.932-4.541-2.234-6.107-3.906
					c-1.57-1.664-2.688-3.67-3.354-6.006c-0.668-2.334-1.001-4.906-1.001-7.709c0-4.273,0.648-8.51,1.95-12.717
					c1.303-4.207,3.22-7.975,5.755-11.316c2.54-3.336,5.658-6.023,9.365-8.057c3.701-2.035,7.925-3.055,12.664-3.055
					c4.671,0,8.263,1.219,10.764,3.652C889.2,728.252,890.451,731.477,890.451,735.481z M875.337,728.071
					c-2.674,0-5.177,0.553-7.512,1.65c-2.335,1.102-4.44,2.59-6.308,4.457c-1.872,1.867-3.489,4.037-4.856,6.506
					c-1.371,2.471-2.391,5.074-3.054,7.812c5.672-0.135,10.445-0.5,14.319-1.102c3.868-0.6,6.987-1.434,9.36-2.504
					c2.368-1.07,4.054-2.354,5.056-3.855c1.001-1.5,1.501-3.219,1.501-5.156c0-2.605-0.783-4.555-2.354-5.857
					C879.924,728.719,877.87,728.071,875.337,728.071z"/>
			</g>
		</g>
	</g>
	<g>
		<path fill="#FFFFFF" d="M770.422,232.12l-70.304-103.097l66.564-45.389l70.3,103.107L770.422,232.12z M719.877,132.753
			l54.285,79.619l43.062-29.369l-54.28-79.605L719.877,132.753z"/>
		<path fill="#FFFFFF" d="M234.599,598.639l-70.298-103.092l66.562-45.383l70.295,103.096L234.599,598.639z M184.054,499.288
			l54.284,79.604l43.065-29.369l-54.28-79.605L184.054,499.288z"/>
		<path fill="#FFFFFF" d="M145.436,638.042l-45.891-67.307l43.861-29.902l45.882,67.303L145.436,638.042z M114.179,573.51
			l34.023,49.889l26.45-18.031l-34.018-49.896L114.179,573.51z"/>
		<path fill="#FFFFFF" d="M856.605,149.175l-45.888-67.306l43.854-29.902l45.883,67.301L856.605,149.175z M825.351,84.645
			l34.022,49.888l26.449-18.03l-34.017-49.896L825.351,84.645z"/>
		<path fill="#FFFFFF" d="M348.252,252.063c0,24.23-19.639,43.865-43.861,43.865c-24.227,0-43.861-19.635-43.861-43.865
			c0-24.229,19.635-43.857,43.861-43.857C328.613,208.206,348.252,227.834,348.252,252.063z"/>
		<path fill="#FFFFFF" d="M295.416,199.836c0.24-11.992,3.406-22.28,9.889-30.245c9.814-12.062,26.22-18.169,48.758-18.169
			c13.712,0,28.952,2.284,45.208,6.515l-0.009-0.056l10.551-7.85c-20.156-5.913-39.017-9.143-55.75-9.143
			c-25.5,0-45.19,7.627-56.933,22.057c-8.636,10.616-12.608,24.193-12.432,39.898C288.112,201.477,291.695,200.475,295.416,199.836z
			"/>
		<path fill="#FFFFFF" d="M696.813,209.499c-41.717-58.132-110.292-92.839-183.428-92.839c-49.872,0-97.938,15.589-139.003,45.073
			c-17.409,12.488-32.783,27.006-46,43.084c4.134,2.109,7.943,4.736,11.367,7.809c12.293-14.795,26.551-28.178,42.641-39.731
			c38.715-27.803,84.014-42.501,130.995-42.501c68.719,0,133.119,32.571,172.266,87.121c33.168,46.203,45.754,103.004,35.43,159.932
			c-10.324,57.014-42.376,107.328-90.238,141.682c-38.739,27.795-84.039,42.484-131.011,42.484c0,0-0.01,0-0.019,0
			c-68.731,0-133.11-32.562-172.244-87.098c-33.159-46.219-45.749-103.02-35.435-159.949c0.636-3.508,1.358-6.988,2.16-10.449
			c-4.602-0.887-8.967-2.406-13.068-4.402c-0.968,4.096-1.859,8.225-2.611,12.4c-10.982,60.623,2.436,121.146,37.792,170.408
			c41.711,58.125,110.263,92.818,183.406,92.834c0.009,0,0.014,0,0.019,0c49.854,0,97.935-15.588,139.027-45.064
			c33.392-23.967,59.535-55.277,76.643-91.119c3.161-6.631,6.015-13.42,8.545-20.342c4.597-12.562,8.137-25.566,10.557-38.934
			C745.595,319.278,732.174,258.754,696.813,209.499z"/>
		<path fill="#FFFFFF" d="M717.3,435.284c9.223,28.512,8.11,51.82-3.79,66.443c-9.811,12.068-26.203,18.176-48.743,18.176h-0.005
			c-57.945,0-142.666-39.639-221.104-103.455c-46.776-38.066-85.045-80.244-111.017-119.57c-3.146,1.992-6.514,3.646-10.071,4.953
			c26.392,40.143,65.544,82.992,114.442,122.791c80.229,65.268,167.491,105.812,227.749,105.812c0,0,0,0,0.005,0
			c25.495,0,45.175-7.623,56.917-22.051c16.033-19.713,16.367-50.217,1.585-87.496C721.434,425.756,719.45,430.563,717.3,435.284z"
			/>
	</g>
</g>
</svg>
